<svg xmlns="http://www.w3.org/2000/svg" viewBox="0 0 1992.17 966.65" preserveAspectRatio="none">
  <g>
    <path d="M1991.32,851.48c-7.13,61.57-57.14,109.79-118.54,114.71-3.73,.3-10.4,.45-20,.45-537.6,.04-1003.5-.03-1397.7-.22-5.95,0-12.12-.03-18.51-.08-7.79-.05-13.93-.38-18.44-.99-59.51-8.06-105.51-55.3-112.19-114.74-1.1-9.77-.38-19.82-.68-29.61-2-64.33-50.26-117.43-114.21-125.36-5.52-.69-12.18-1.01-19.98-.97-20.75,.11-37.03-.1-48.86-.63C54.52,691-.02,632.79,0,565.58,.06,417.18,.07,272.26,.02,130.8,0,64.54,49.03,8.5,115.12,.84c4.55-.53,11.19-.79,19.92-.79C668.25-.06,1135.75,0,1537.56,.25c5.73,0,12.13,.04,19.2,.11,7.93,.08,14.29,.49,19.09,1.22,59.06,9.08,103.6,55.55,110.4,114.74,1.01,8.76,.45,18.43,.61,27.52,1.16,66.18,50.78,120.17,116.41,127.48,4.47,.5,11.15,.74,20.04,.73,24.43-.04,39.86,.13,46.27,.51,62.44,3.72,114.24,51.36,121.73,113.99,.58,4.81,.87,10.17,.86,16.08-.09,140.69-.11,287.52-.08,440.48,0,1.16-.26,3.95-.77,8.37Z"/>
  </g>
</svg>